<svg width="1435" height="610" viewBox="0 0 1435 610" fill="none" xmlns="http://www.w3.org/2000/svg">
<path d="M318.885 460.353L472.115 413.763C474.69 412.932 476.976 411.386 478.706 409.306C480.435 407.226 481.538 404.696 481.885 402.013L508.065 234.013C508.476 231.122 508.189 228.175 507.228 225.418C506.268 222.661 504.662 220.173 502.545 218.163L375.535 96.713C373.571 94.7287 371.114 93.3031 368.416 92.5826C365.718 91.862 362.878 91.8725 360.185 92.613L206.955 139.203C204.369 140.023 202.07 141.565 200.328 143.646C198.587 145.727 197.476 148.262 197.125 150.953L170.945 318.953C170.538 321.844 170.827 324.789 171.787 327.546C172.747 330.303 174.351 332.791 176.465 334.803L303.465 456.233C305.436 458.23 307.904 459.665 310.615 460.389C313.326 461.114 316.181 461.101 318.885 460.353Z" stroke="#EFEFEF" stroke-width="10.3" stroke-miterlimit="10"/>
<path d="M181.035 407.133L365.195 469.943C368.331 470.985 371.666 471.284 374.937 470.817C378.208 470.35 381.326 469.13 384.045 467.253L544.125 355.353C549.545 351.563 552.385 345.583 551.565 339.663L527.475 164.993C526.665 159.073 522.315 154.113 516.075 151.993L331.885 89.183C328.75 88.14 325.416 87.8392 322.145 88.3043C318.874 88.7693 315.755 89.9876 313.035 91.863L152.985 203.743C147.565 207.533 144.725 213.523 145.545 219.443L169.625 394.123C170.445 400.043 174.795 405.003 181.035 407.133Z" stroke="#EFEFEF" stroke-width="11.52" stroke-miterlimit="10"/>
<path d="M91.8155 277.763L217.695 444.263C221.955 449.903 229.696 453.733 237.906 454.323L481.076 471.503C489.316 472.093 496.845 469.333 500.815 464.273L618.105 314.973C622.105 309.913 621.905 303.323 617.635 297.673L491.755 131.183C487.495 125.543 479.755 121.713 471.545 121.123L228.375 103.933C220.135 103.353 212.615 106.113 208.635 111.173L91.3455 260.473C87.3655 265.533 87.5455 272.123 91.8155 277.763Z" stroke="#EFEFEF" stroke-width="12.88" stroke-miterlimit="10"/>
<path d="M110.325 121.353L97.0854 329.773C96.6354 336.833 100.935 344.773 108.355 350.473L327.355 519.943C334.775 525.693 344.195 528.413 352.075 527.093L584.345 488.093C592.215 486.773 597.345 481.613 597.795 474.543L611.025 266.093C611.475 259.023 607.175 251.093 599.755 245.393L380.755 75.9233C373.335 70.1733 363.915 67.4533 356.045 68.7733L123.765 107.773C115.885 109.093 110.775 114.253 110.325 121.353Z" stroke="#EFEFEF" stroke-width="14.4" stroke-miterlimit="10"/>
<path d="M253.745 13.3529L73.5852 164.543C67.4752 169.673 65.2552 178.473 67.7452 187.643L141.315 458.263C142.626 462.889 144.902 467.184 147.992 470.868C151.082 474.551 154.918 477.538 159.245 479.633L412.975 599.073C421.575 603.073 430.635 602.463 436.735 597.333L616.885 446.163C622.985 441.033 625.215 432.233 622.725 423.063L549.175 152.443C547.864 147.817 545.589 143.521 542.498 139.838C539.408 136.155 535.573 133.168 531.245 131.073L277.515 11.6329C268.885 7.5829 259.885 8.2429 253.745 13.3529Z" stroke="#EFEFEF" stroke-width="16.1" stroke-miterlimit="10"/>
<path d="M477.825 22.8731H183.885C178.991 22.8732 174.182 24.1615 169.943 26.6084C165.704 29.0553 162.183 32.5747 159.735 36.8131L12.7352 291.413C10.2882 295.651 9 300.459 9 305.353C9 310.247 10.2882 315.055 12.7352 319.293L159.735 573.893C162.183 578.132 165.704 581.651 169.943 584.098C174.182 586.545 178.991 587.833 183.885 587.833H477.885C482.78 587.834 487.589 586.546 491.828 584.099C496.067 581.652 499.588 578.132 502.035 573.893L649.035 319.293C651.482 315.055 652.77 310.247 652.77 305.353C652.77 300.459 651.482 295.651 649.035 291.413L502.035 36.8131C499.583 32.5652 496.053 29.0396 491.802 26.592C487.551 24.1445 482.73 22.8617 477.825 22.8731Z" stroke="#EFEFEF" stroke-width="18" stroke-miterlimit="10"/>
<path d="M1038.2 232.493C1038.17 233.856 1038.5 235.202 1039.15 236.403C1039.79 237.603 1040.74 238.619 1041.89 239.353C1044.31 241.066 1047.69 241.92 1052.01 241.913H1087.65V289.703C1072.71 288.443 1060.83 287.723 1052.01 287.543C1052.19 321.023 1052.91 354.773 1054.17 388.793H990.165C990.345 367.56 990.435 334.08 990.435 288.353C986.655 288.533 980.175 288.983 970.995 289.703V241.943H990.165V236.813C990.165 222.773 993.045 210.803 998.805 200.903C1004.35 191.211 1012.68 183.404 1022.71 178.493C1032.87 173.466 1044.53 170.946 1057.71 170.933C1068.58 170.974 1079.39 172.518 1089.84 175.523C1086.24 188.663 1082.64 205.133 1079.04 224.933L1077.42 233.033C1073.56 229.685 1069.13 227.078 1064.33 225.343C1060.14 223.743 1055.71 222.874 1051.23 222.773C1048.44 222.678 1045.66 223.233 1043.13 224.393C1041.13 225.291 1039.58 226.942 1038.81 228.983C1038.39 230.105 1038.18 231.295 1038.2 232.493Z" fill="#EFEFEF"/>
<path d="M1170.23 394.223H1103.23L1154.8 195.223H1221.8L1170.23 394.223Z" fill="#EFEFEF"/>
<path d="M1396.22 263.683C1407.92 269.537 1417.14 277.41 1423.89 287.303C1430.45 296.631 1433.99 307.755 1434.02 319.163C1434.24 333.315 1429.26 347.056 1420.02 357.773C1410.68 368.753 1397.99 377.123 1381.95 382.883C1365.9 388.643 1347.99 391.523 1328.22 391.523C1308.04 391.523 1290.09 387.523 1274.35 379.523C1258.61 371.523 1246.37 360.407 1237.63 346.173C1228.89 331.967 1224.53 315.767 1224.54 297.573C1224.54 261.393 1234.57 234.44 1254.64 216.713C1274.7 198.987 1301.75 190.12 1335.78 190.113C1377.18 190.113 1409.84 200.553 1433.78 221.433C1422.77 233.221 1412.83 245.961 1404.08 259.503C1396.88 254.103 1386.75 249.74 1373.7 246.413C1360.64 243.087 1348.98 241.42 1338.7 241.413C1323.04 241.413 1309.9 245.33 1299.28 253.163C1288.66 260.997 1282.19 272.197 1279.89 286.763C1279.68 288.012 1279.59 289.278 1279.62 290.543C1287.95 278.187 1299.87 268.672 1313.77 263.273C1327.64 257.746 1342.44 254.906 1357.38 254.903C1370.83 254.742 1384.14 257.75 1396.22 263.683ZM1350.05 337.353C1355.99 335.46 1360.65 332.85 1364.05 329.523C1367.46 326.193 1369.18 322.633 1369.18 318.853C1369.18 312.913 1365.44 307.83 1357.97 303.603C1350.49 299.377 1341.47 297.273 1330.89 297.293C1320.25 297.293 1311.21 299.41 1303.75 303.643C1296.29 307.877 1292.55 312.96 1292.55 318.893C1292.55 322.673 1294.26 326.23 1297.68 329.563C1301.1 332.897 1305.76 335.507 1311.68 337.393C1324.18 341.167 1337.51 341.167 1350.02 337.393L1350.05 337.353Z" fill="#EFEFEF"/>
</svg>
